<?xml version="1.0" standalone="no"?><!DOCTYPE svg PUBLIC "-//W3C//DTD SVG 1.1//EN" "http://www.w3.org/Graphics/SVG/1.1/DTD/svg11.dtd"><svg t="1613412960923" class="icon" viewBox="0 0 1024 1024" version="1.1" xmlns="http://www.w3.org/2000/svg" p-id="3501" xmlns:xlink="http://www.w3.org/1999/xlink" width="200" height="200"><defs><style type="text/css"></style></defs><path d="M510.737 1021.986C229.82 1021.986 0 792.166 0 511.317 0 230.366 229.82 0.547 510.737 0.547c280.883 0 510.703 229.819 510.703 510.736 0 283.443-229.82 510.703-510.703 510.703z" fill="#2F94FD" p-id="3502"></path><path d="M331.98 271.223h127.66v165.99l160.904-165.99h178.722s-219.58 204.288-229.82 214.528c-10.205 10.206-15.325 28.092-2.56 48.504C582.246 554.7 758.41 758.989 758.41 758.989l-160.87-2.56-160.871-191.522-15.326 194.082-132.779 2.526 43.418-490.292z" fill="#FFFFFF" p-id="3503"></path></svg>