<?xml version="1.0" standalone="no"?><!DOCTYPE svg PUBLIC "-//W3C//DTD SVG 1.1//EN" "http://www.w3.org/Graphics/SVG/1.1/DTD/svg11.dtd"><svg t="1613413097191" class="icon" viewBox="0 0 1025 1024" version="1.1" xmlns="http://www.w3.org/2000/svg" p-id="5551" xmlns:xlink="http://www.w3.org/1999/xlink" width="200.1953125" height="200"><defs><style type="text/css"></style></defs><path d="M157.313135 0H864.694739c86.168297 0 157.307241 70.136986 157.307241 156.305284v709.385518c0 86.168297-71.138943 156.305284-157.307241 156.305284H157.313135c-86.168297 0-157.307241-70.136986-157.307241-156.305284V156.305284C0.005894 70.136986 71.144837 0 157.313135 0z" fill="#FFFFFF" p-id="5552"></path><path d="M428.843467 219.428571c29.056751-14.027397 61.119374-20.039139 92.180039-19.037182 38.074364 2.003914 75.146771 15.029354 106.207437 38.074364 30.058708 23.04501 53.103718 54.105675 66.129158 90.176126-13.02544 3.005871-27.052838 7.013699-40.078278 13.02544-14.027397 6.011742-28.054795 14.027397-40.078277 24.046967-17.033268 13.02544-32.062622 29.056751-43.084149 47.091976-13.02544 19.037182-21.041096 41.080235-27.052838 63.123288-2.003914 13.02544-4.007828 26.050881-4.007828 39.076321 0 17.033268 2.003914 34.066536 6.011742 50.097847 2.003914 6.011742 4.007828 12.023483 5.009785 18.035225-10.019569 1.001957-21.041096 1.001957-32.062622 1.001957-40.078278 1.001957-81.158513-10.019569-115.225049-33.064579-32.062622-22.043053-58.113503-54.105675-71.138944-90.176125-16.031311-40.078278-17.033268-86.168297-3.00587-127.248533 17.033268-50.097847 54.105675-91.178082 100.195694-114.223092m69.13503 75.146771c-18.035225 2.003914-31.060665 20.039139-29.056752 38.074364 1.001957 14.027397 11.021526 26.050881 24.046967 30.058709 15.029354 5.009785 32.062622-1.001957 41.080235-14.027397 9.017613-13.02544 7.013699-32.062622-4.007828-43.084149-9.017613-9.017613-21.041096-13.02544-32.062622-11.021527z" fill="#FFFFFF" p-id="5553"></path><path d="M229.454035 59.11546c4.007828 2.003914 8.015656 6.011742 12.023483 8.015655 49.09589 36.07045 111.217221 55.107632 172.336595 54.105676 15.029354 0 29.056751-4.007828 44.086106-5.009785 44.086106-5.009785 89.174168 3.005871 129.252446 22.043053 57.111546 27.052838 103.201566 78.152642 123.240704 137.268101 5.009785 16.031311 10.019569 33.064579 11.021527 50.097848-10.019569 1.001957-19.037182 2.003914-28.054795 3.005871-13.02544-36.07045-36.07045-67.131115-66.129158-90.176126-30.058708-23.04501-68.133072-36.07045-106.207437-38.074364-32.062622-1.001957-64.125245 5.009785-92.180039 19.037182-46.09002 22.043053-83.162427 64.125245-99.193738 113.221135-14.027397 41.080235-13.02544 87.170254 3.005871 127.248533 14.027397 36.07045 39.076321 68.133072 71.138944 90.176125 33.064579 23.04501 74.144814 34.066536 115.225048 33.064579 11.021526 0 21.041096 0 32.062623-1.001957 19.037182-1.001957 38.074364-7.013699 57.111546-13.02544l21.041096-9.017613c12.023483-7.013699 25.048924-14.027397 36.07045-22.043052 23.04501-17.033268 42.082192-38.074364 57.111546-61.119374 4.007828-7.013699 9.017613-14.027397 13.02544-22.043053 18.035225-35.068493 27.052838-75.146771 28.054795-114.223092 1.001957-42.082192-8.015656-85.166341-27.052838-123.240704-8.015656-18.035225-19.037182-34.066536-31.060665-50.097848 18.035225 9.017613 35.068493 21.041096 51.099804 33.064579 62.121331 46.09002 110.215264 110.215264 139.272016 182.356165 26.050881 67.131115 36.07045 140.273973 26.05088 211.412916-7.013699 52.101761-23.04501 103.201566-49.09589 149.291585-3.005871 5.009785-5.009785 10.019569-9.017613 15.029354-6.011742 8.015656-11.021526 17.033268-17.033268 25.048924-9.017613 13.02544-19.037182 25.048924-30.058708 37.072407-3.005871 3.005871-5.009785 6.011742-8.015656 9.017612-8.015656 10.019569-17.033268 18.035225-26.05088 26.050881-40.078278 36.07045-87.170254 64.125245-138.270059 83.162426-63.123288 23.04501-131.25636 31.060665-197.385519 22.043053-34.066536-4.007828-68.133072-13.02544-100.195694-25.048923-74.144814-29.056751-140.273973-79.154599-188.367906-143.279844C100.201589 713.393346 71.144837 613.197652 76.154622 515.005871c5.009785-100.195695 48.093933-197.385519 117.228963-269.526419 2.003914-2.003914 3.005871-4.007828 5.009784-5.009785-3.005871-19.037182-5.009785-39.076321-4.007827-58.113503 2.003914-44.086106 14.027397-86.168297 35.068493-123.240704m506.990215 526.027397c-16.031311 2.003914-31.060665 8.015656-43.084149 18.035225-15.029354 12.023483-26.050881 30.058708-30.058708 49.095891-4.007828 18.035225-2.003914 38.074364 6.011742 54.105675 12.023483 27.052838 40.078278 46.09002 70.136986 48.093933 3.005871 0 6.011742-1.001957 8.015655-2.003914 29.056751-13.02544 56.109589-32.062622 78.152642-54.105675 3.005871-3.005871 3.005871-7.013699 4.007828-10.019569 3.005871-15.029354 2.003914-31.060665-2.003914-46.09002-7.013699-20.039139-21.041096-37.072407-39.076321-47.091976-17.033268-8.015656-35.068493-12.023483-52.101761-10.01957z" fill="#EF5549" p-id="5554"></path><path d="M497.978497 294.575342c11.021526-2.003914 23.04501 2.003914 31.060665 10.01957 11.021526 11.021526 13.02544 30.058708 4.007828 43.084149-8.015656 13.02544-26.050881 19.037182-41.080235 14.027397-13.02544-4.007828-23.04501-17.033268-24.046967-30.058708-1.001957-18.035225 12.023483-35.068493 30.058709-37.072408z m238.465753 290.567515c17.033268-2.003914 36.07045 1.001957 51.099804 10.01957 18.035225 10.019569 33.064579 27.052838 39.076321 47.091976 5.009785 15.029354 6.011742 31.060665 2.003914 46.09002-1.001957 4.007828-1.001957 8.015656-4.007828 10.019569-22.043053 23.04501-49.09589 42.082192-78.152641 54.105675-3.005871 1.001957-5.009785 2.003914-8.015656 2.003914-30.058708-2.003914-57.111546-21.041096-70.136986-48.093933-8.015656-17.033268-10.019569-36.07045-6.011742-54.105675 4.007828-19.037182 15.029354-36.07045 30.058708-49.095891 13.02544-9.017613 28.054795-16.031311 44.086106-18.035225z m111.217221 197.385519c6.011742-8.015656 11.021526-17.033268 17.033268-25.048924 10.019569 17.033268 21.041096 34.066536 32.062623 51.099804 17.033268 27.052838 33.064579 53.103718 50.097847 80.156556-17.033268 12.023483-35.068493 23.04501-52.101761 35.068493-1.001957 1.001957-2.003914-1.001957-3.005871-1.001957l-81.158513-93.181996c2.003914-3.005871 5.009785-6.011742 8.015656-9.017612 10.019569-12.023483 19.037182-25.048924 29.056751-38.074364z" fill="" p-id="5555"></path><path d="M693.360101 328.641879c9.017613-2.003914 19.037182-3.005871 28.054795-3.005871h1.001957c3.005871 30.058708 2.003914 60.117417-6.011742 88.172211-3.005871 9.017613-5.009785 18.035225-8.015655 26.050881-5.009785 12.023483-10.019569 24.046967-17.033269 36.07045-6.011742 10.019569-12.023483 20.039139-19.037182 28.054794h-1.001957c-4.007828-5.009785-6.011742-11.021526-11.021526-15.029354-4.007828-4.007828-8.015656-9.017613-13.02544-12.023483-8.015656-6.011742-17.033268-11.021526-26.050881-13.02544-16.031311-4.007828-33.064579-4.007828-49.09589 2.003913-2.003914 2.003914-2.003914 5.009785-2.003914 8.015656 0 14.027397 2.003914 29.056751 9.017612 42.082192 3.005871 7.013699 8.015656 13.02544 12.023484 19.037182 7.013699 8.015656 15.029354 14.027397 24.046966 19.037182 5.009785 2.003914 9.017613 6.011742 14.027398 6.011741-7.013699 3.005871-14.027397 7.013699-21.041096 9.017613-18.035225 7.013699-37.072407 12.023483-57.111546 13.02544-1.001957-6.011742-4.007828-12.023483-5.009785-18.035225-4.007828-16.031311-6.011742-33.064579-6.011742-50.097847 0-13.02544 2.003914-26.050881 4.007828-39.076321 5.009785-22.043053 13.02544-44.086106 27.052838-63.123288 11.021526-18.035225 26.050881-34.066536 43.084148-47.091976 12.023483-10.019569 26.050881-18.035225 40.078278-24.046967 12.023483-5.009785 25.048924-8.015656 39.076321-12.023483z" fill="#FFB522" p-id="5556"></path></svg>