<?xml version="1.0" standalone="no"?><!DOCTYPE svg PUBLIC "-//W3C//DTD SVG 1.1//EN" "http://www.w3.org/Graphics/SVG/1.1/DTD/svg11.dtd"><svg t="1613412932104" class="icon" viewBox="0 0 1024 1024" version="1.1" xmlns="http://www.w3.org/2000/svg" p-id="3239" xmlns:xlink="http://www.w3.org/1999/xlink" width="200" height="200"><defs><style type="text/css"></style></defs><path d="M204.800102 0.000341h612.146996a203.775932 203.775932 0 0 1 204.048999 204.048999v612.146996a203.775932 203.775932 0 0 1-204.048999 204.048999H204.800102a203.775932 203.775932 0 0 1-204.048998-204.048999V204.04934A203.741799 203.741799 0 0 1 204.800102 0.000341z" fill="#E63B11" p-id="3240"></path><path d="M811.792967 477.184182L613.614899 324.2669c-15.086928-10.035197-35.089055-7.441064-45.158384 5.051732-2.457599 5.051732-5.017598 7.509331-5.017599 12.526929v320.989759c0 7.475198 0 17.544527 5.017599 22.562126 7.509331 7.509331 15.086928 12.526929 25.053858 12.526929 7.475198 0 15.086928-2.457599 20.002126-7.50933l198.280468-150.52795c10.035197-7.509331 17.544527-20.002127 17.544527-32.631456 0-9.96693-7.611731-22.459726-17.544527-30.071457z m-185.685272 125.405825v-185.548738l120.388227 92.774369-120.354093 92.774369z m-170.393543-315.972161c15.086928 10.06933 35.089055 7.509331 45.158385-5.017599 10.035197-15.086928 7.475198-35.089055-5.051732-45.158384l-127.999957-97.791968c-10.035197-10.06933-27.579724-12.526929-42.530119-5.017598-15.121062 7.475198-22.596259 22.562126-22.596259 37.649054v153.019682h-12.526929c-55.193582 0-97.757834 42.564252-97.757834 97.791968v172.987675c0 52.633582 45.124252 97.791967 97.757834 97.791968h12.526929v155.477281c0 15.086928 10.06933 30.037323 22.596259 37.649054 5.017598 2.457599 12.492796 5.051732 17.544527 5.051732 10.035197 0 17.544527-2.457599 25.019725-7.509331l127.863424-97.757834c15.086928-10.06933 17.544527-32.665589 5.017599-45.158385-10.06933-15.086928-32.631456-17.544527-45.158385-5.051732l-90.31677 67.754645v-107.861298h12.629329c55.227715 0 97.826101-42.598386 97.826101-97.791967v-173.124209c0-52.633582-45.158385-97.791967-97.791968-97.791968h-12.526929v-107.861297l90.31677 67.720511z m-153.019682 340.991886h-12.526929a33.279989 33.279989 0 0 1-32.631456-32.631456v-172.885275c0-17.544527 15.086928-32.631456 32.631456-32.631456h12.526929v238.148187z m77.823974-238.148187c17.510394 0 32.597322 15.086928 32.597322 32.631456v172.987675a33.279989 33.279989 0 0 1-32.631455 32.665589h-12.492796v-235.861254h12.492796v-2.423466z" fill="#FFFFFF" p-id="3241"></path></svg>