<?xml version="1.0" standalone="no"?><!DOCTYPE svg PUBLIC "-//W3C//DTD SVG 1.1//EN" "http://www.w3.org/Graphics/SVG/1.1/DTD/svg11.dtd"><svg t="1613413304843" class="icon" viewBox="0 0 1024 1024" version="1.1" xmlns="http://www.w3.org/2000/svg" p-id="6600" xmlns:xlink="http://www.w3.org/1999/xlink" width="200" height="200"><defs><style type="text/css"></style></defs><path d="M243.2 207.36h560.64v599.04H243.2z" fill="#FFFFFF" p-id="6601"></path><path d="M454.4 652.8c-2.816 2.304-5.888 4.352-9.216 5.888s-6.144 2.304-8.192 2.304c-2.816 0-4.864-0.512-6.144-1.792s-1.792-3.072-1.792-5.632V568.32H399.36v92.928c0 6.656 1.792 11.52 5.12 14.848 3.584 3.328 8.704 5.12 15.36 5.12 5.632 0 11.264-1.28 17.152-3.584 5.888-2.304 11.52-5.888 17.152-10.24v12.288H483.84v-111.104h-29.696V652.8h0.256zM314.88 560.384h28.416v117.504h27.392v-117.504h28.416v-19.968H314.88v19.968z m252.672 15.36c-4.608 0-9.216 0.768-13.568 2.56-4.352 1.536-8.448 4.096-12.544 7.168v-44.8H512v139.264h29.44v-7.936c3.584 3.072 7.936 5.376 12.544 6.912 4.352 1.536 9.472 2.304 15.36 2.304 8.704 0 15.36-1.792 19.968-5.888 4.608-3.84 6.912-9.472 6.912-16.64V601.6c0-8.448-2.56-14.848-7.424-19.2-4.864-4.608-12.032-6.656-21.248-6.656z m-1.792 79.872c0 3.328-0.768 5.632-2.56 6.912-1.792 1.536-4.352 2.304-7.936 2.304l-7.168-1.024c-2.304-0.768-4.608-2.048-6.912-3.584v-64l6.144-3.072 6.144-1.024c3.84 0 6.912 1.024 9.216 2.56 2.048 1.792 3.072 4.352 3.072 7.936v52.992z" fill="#EE0000" p-id="6602"></path><path d="M512 61.952c-248.576 0-450.048 201.472-450.048 450.048S263.424 962.048 512 962.048 962.048 760.576 962.048 512 760.576 61.952 512 61.952z m64.768 225.536h26.624v104.96c0 3.328 0.512 5.632 1.792 6.912 1.024 1.536 2.816 2.304 5.376 2.304 2.048 0 4.352-1.024 7.424-2.816 3.072-2.048 5.888-4.608 8.192-7.424v-103.936H652.8v136.704h-26.624v-15.104c-4.864 5.632-9.984 9.728-15.36 12.8-5.376 2.816-10.496 5.632-15.36 5.632-6.144 0-10.752-3.328-13.824-7.424-3.072-4.096-4.608-10.24-4.608-18.432v-114.176h-0.256z m-120.832 33.536c0-10.24 4.096-18.432 12.544-24.32 8.448-6.144 19.712-8.96 34.048-8.96 13.056 0 23.552 3.072 32 9.472 8.192 6.4 12.288 14.592 12.288 24.832v68.352c0 11.264-4.096 20.224-12.032 26.624-8.192 6.4-19.2 11.008-33.536 11.008-13.568 0-24.576-4.608-33.024-11.264-8.192-6.656-12.288-15.616-12.288-26.88v-68.864z m-78.848-90.112l21.76 78.848h2.048l20.736-78.848H455.68l-39.168 115.2v81.664h-33.536v-78.08L343.04 230.656l34.048 0.256z m387.84 417.024c0 49.152-41.472 88.832-92.416 88.832H351.488c-51.2 0-92.416-39.68-92.416-88.832v-75.008c0-48.896 41.472-88.832 92.416-88.832h321.28c50.944 0 92.416 39.68 92.416 88.832v75.008h-0.256z" fill="#EE0000" p-id="6603"></path><path d="M679.424 647.168c0 6.4-1.024 10.24-2.816 12.288-1.792 1.792-5.12 2.816-9.984 2.816-4.608 0-7.68-1.024-9.728-3.328-1.792-2.304-2.816-6.144-2.816-11.776V627.2h54.528v-27.136c0-9.984-3.584-17.92-10.496-23.296-6.912-5.376-17.152-8.192-30.208-8.192-12.8 0-23.04 2.816-31.232 8.704-8.192 5.888-12.032 13.312-12.032 22.528V647.68c0 10.24 3.84 18.432 11.008 24.064 7.424 5.888 17.408 8.704 30.208 8.704 14.08 0 24.832-2.816 32-8.192 7.168-5.632 10.752-13.824 10.752-24.576v-5.376h-29.44l0.256 4.864z m-23.808-47.36c0-4.352 1.024-7.68 2.816-9.472 2.048-2.048 5.12-2.816 9.728-2.816 4.352 0 7.68 1.024 9.472 2.816 2.048 1.792 3.072 5.12 3.072 9.472v10.752H655.36v-10.752h0.256zM489.984 396.8c2.56 1.792 6.144 2.816 10.752 2.816 4.864 0 8.448-1.024 11.264-2.816s4.096-4.352 4.096-7.68v-64.768c0-2.56-1.28-4.608-4.352-6.4-2.816-1.536-6.656-2.304-11.264-2.304-4.352 0-7.68 0.768-10.496 2.304-2.56 1.536-4.096 3.84-4.096 6.4V389.12c0.256 3.328 1.536 5.888 4.096 7.68z" fill="#EE0000" p-id="6604"></path></svg>